ISO-10303-21;
HEADER;
FILE_DESCRIPTION (( 'STEP AP203' ),
    '1' );
FILE_NAME ('2100-0008-0200.STEP',
    '2018-02-12T21:33:09',
    ( '' ),
    ( '' ),
    'SwSTEP 2.0',
    'SolidWorks 2016',
    '' );
FILE_SCHEMA (( 'CONFIG_CONTROL_DESIGN' ));
ENDSEC;

DATA;
#1 = CC_DESIGN_PERSON_AND_ORGANIZATION_ASSIGNMENT ( #248, #183, ( #48 ) ) ;
#2 = AXIS2_PLACEMENT_3D ( 'NONE', #38, #170, #125 ) ;
#3 = ORIENTED_EDGE ( 'NONE', *, *, #31, .T. ) ;
#4 = CONICAL_SURFACE ( 'NONE', #264, 3.874999999999989300, 0.7853981633975455300 ) ;
#5 =( NAMED_UNIT ( * ) PLANE_ANGLE_UNIT ( ) SI_UNIT ( $, .RADIAN. ) );
#6 = PERSON_AND_ORGANIZATION_ROLE ( 'classification_officer' ) ;
#7 = PERSON_AND_ORGANIZATION ( #197, #211 ) ;
#8 = APPROVAL ( #93, 'UNSPECIFIED' ) ;
#9 = AXIS2_PLACEMENT_3D ( 'NONE', #130, #179, #161 ) ;
#10 = VERTEX_POINT ( 'NONE', #54 ) ;
#11 = ORIENTED_EDGE ( 'NONE', *, *, #27, .F. ) ;
#12 = FACE_OUTER_BOUND ( 'NONE', #120, .T. ) ;
#13 = PLANE ( 'NONE',  #91 ) ;
#14 = EDGE_CURVE ( 'NONE', #146, #56, #108, .T. ) ;
#15 = UNCERTAINTY_MEASURE_WITH_UNIT (LENGTH_MEASURE( 1.000000000000000100E-005 ), #155, 'distance_accuracy_value', 'NONE');
#16 = LINE ( 'NONE', #245, #207 ) ;
#17 = CARTESIAN_POINT ( 'NONE',  ( 4.822046771642662900E-016, 0.0000000000000000000, -3.874999999999934300 ) ) ;
#18 = DIRECTION ( 'NONE',  ( 0.0000000000000000000, 0.0000000000000000000, 1.000000000000000000 ) ) ;
#19 = EDGE_CURVE ( 'NONE', #56, #41, #246, .T. ) ;
#20 = CARTESIAN_POINT ( 'NONE',  ( 0.0000000000000000000, 0.0000000000000000000, 3.874999999999934300 ) ) ;
#21 = CARTESIAN_POINT ( 'NONE',  ( 0.0000000000000000000, 0.1250000000000417400, 0.0000000000000000000 ) ) ;
#22 = DIRECTION ( 'NONE',  ( -0.0000000000000000000, -1.000000000000000000, -0.0000000000000000000 ) ) ;
#23 = CC_DESIGN_PERSON_AND_ORGANIZATION_ASSIGNMENT ( #57, #71, ( #48 ) ) ;
#24 = AXIS2_PLACEMENT_3D ( 'NONE', #84, #210, #106 ) ;
#25 = ORIENTED_EDGE ( 'NONE', *, *, #14, .T. ) ;
#26 = LINE ( 'NONE', #153, #110 ) ;
#27 = EDGE_CURVE ( 'NONE', #99, #146, #152, .T. ) ;
#28 = ORIENTED_EDGE ( 'NONE', *, *, #76, .T. ) ;
#29 = APPROVAL_ROLE ( '' ) ;
#30 = AXIS2_PLACEMENT_3D ( 'NONE', #21, #127, #195 ) ;
#31 = EDGE_CURVE ( 'NONE', #214, #10, #83, .T. ) ;
#32 = CIRCLE ( 'NONE', #206, 3.874999999999934300 ) ;
#33 = CC_DESIGN_DATE_AND_TIME_ASSIGNMENT ( #51, #257, ( #86 ) ) ;
#34 = DIRECTION ( 'NONE',  ( 0.0000000000000000000, 0.0000000000000000000, -1.000000000000000000 ) ) ;
#35 = DATE_AND_TIME ( #141, #145 ) ;
#36 = CALENDAR_DATE ( 2018, 12, 2 ) ;
#37 = DIRECTION ( 'NONE',  ( -0.0000000000000000000, -1.000000000000000000, -0.0000000000000000000 ) ) ;
#38 = CARTESIAN_POINT ( 'NONE',  ( 0.0000000000000000000, 0.1250000000000417400, 0.0000000000000000000 ) ) ;
#39 = ADVANCED_FACE ( 'NONE', ( #46 ), #13, .F. ) ;
#40 = EDGE_CURVE ( 'NONE', #61, #111, #32, .T. ) ;
#41 = VERTEX_POINT ( 'NONE', #105 ) ;
#42 =( NAMED_UNIT ( * ) SI_UNIT ( $, .STERADIAN. ) SOLID_ANGLE_UNIT ( ) );
#43 = DIRECTION ( 'NONE',  ( 0.0000000000000000000, 0.0000000000000000000, -1.000000000000000000 ) ) ;
#44 = PERSON_AND_ORGANIZATION ( #197, #211 ) ;
#45 = CARTESIAN_POINT ( 'NONE',  ( 0.0000000000000000000, 0.0000000000000000000, 0.0000000000000000000 ) ) ;
#46 = FACE_OUTER_BOUND ( 'NONE', #164, .T. ) ;
#47 = PERSON_AND_ORGANIZATION ( #197, #211 ) ;
#48 = PRODUCT_DEFINITION_FORMATION_WITH_SPECIFIED_SOURCE ( 'ANY', '', #156, .NOT_KNOWN. ) ;
#49 = PERSON_AND_ORGANIZATION_ROLE ( 'creator' ) ;
#50 = AXIS2_PLACEMENT_3D ( 'NONE', #265, #239, #43 ) ;
#51 = DATE_AND_TIME ( #241, #266 ) ;
#52 = ORIENTED_EDGE ( 'NONE', *, *, #76, .F. ) ;
#53 = DATE_AND_TIME ( #147, #158 ) ;
#54 = CARTESIAN_POINT ( 'NONE',  ( 0.0000000000000000000, 199.8750000000000300, -4.000000000000000000 ) ) ;
#55 = AXIS2_PLACEMENT_3D ( 'NONE', #168, #166, #97 ) ;
#56 = VERTEX_POINT ( 'NONE', #243 ) ;
#57 = PERSON_AND_ORGANIZATION ( #197, #211 ) ;
#58 = DIRECTION ( 'NONE',  ( 0.0000000000000000000, -1.000000000000000000, 0.0000000000000000000 ) ) ;
#59 = DIRECTION ( 'NONE',  ( 0.0000000000000000000, 0.0000000000000000000, 1.000000000000000000 ) ) ;
#60 = CARTESIAN_POINT ( 'NONE',  ( 0.0000000000000000000, 200.0000000000000000, 0.0000000000000000000 ) ) ;
#61 = VERTEX_POINT ( 'NONE', #17 ) ;
#62 = CYLINDRICAL_SURFACE ( 'NONE', #74, 4.000000000000000000 ) ;
#63 = DATE_AND_TIME ( #36, #73 ) ;
#64 = CARTESIAN_POINT ( 'NONE',  ( 0.0000000000000000000, 199.8750000000000300, 0.0000000000000000000 ) ) ;
#65 = ADVANCED_FACE ( 'NONE', ( #165 ), #115, .T. ) ;
#66 = FACE_OUTER_BOUND ( 'NONE', #98, .T. ) ;
#67 = LOCAL_TIME ( 15, 33, 9.000000000000000000, #220 ) ;
#68 = ORIENTED_EDGE ( 'NONE', *, *, #40, .T. ) ;
#69 = ORIENTED_EDGE ( 'NONE', *, *, #273, .T. ) ;
#70 = MECHANICAL_CONTEXT ( 'NONE', #174, 'mechanical' ) ;
#71 = PERSON_AND_ORGANIZATION_ROLE ( 'creator' ) ;
#72 = LINE ( 'NONE', #102, #126 ) ;
#73 = LOCAL_TIME ( 15, 33, 9.000000000000000000, #78 ) ;
#74 = AXIS2_PLACEMENT_3D ( 'NONE', #154, #22, #247 ) ;
#75 = AXIS2_PLACEMENT_3D ( 'NONE', #131, #253, #218 ) ;
#76 = EDGE_CURVE ( 'NONE', #10, #41, #26, .T. ) ;
#77 = CIRCLE ( 'NONE', #90, 4.000000000000000000 ) ;
#78 = COORDINATED_UNIVERSAL_TIME_OFFSET ( 6, 0, .BEHIND. ) ;
#79 = ORIENTED_EDGE ( 'NONE', *, *, #178, .F. ) ;
#80 = CARTESIAN_POINT ( 'NONE',  ( 0.0000000000000000000, 200.0000000000000000, 0.0000000000000000000 ) ) ;
#81 = DIRECTION ( 'NONE',  ( 0.0000000000000000000, 0.0000000000000000000, -1.000000000000000000 ) ) ;
#82 = EDGE_LOOP ( 'NONE', ( #149, #144, #28, #175 ) ) ;
#83 = LINE ( 'NONE', #209, #148 ) ;
#84 = CARTESIAN_POINT ( 'NONE',  ( 0.0000000000000000000, 0.1250000000000417400, 0.0000000000000000000 ) ) ;
#85 = ORIENTED_EDGE ( 'NONE', *, *, #223, .T. ) ;
#86 = PRODUCT_DEFINITION ( 'UNKNOWN', '', #48, #231 ) ;
#87 = ADVANCED_FACE ( 'NONE', ( #66 ), #4, .T. ) ;
#88 = COORDINATED_UNIVERSAL_TIME_OFFSET ( 6, 0, .BEHIND. ) ;
#89 = DATE_AND_TIME ( #208, #67 ) ;
#90 = AXIS2_PLACEMENT_3D ( 'NONE', #64, #162, #109 ) ;
#91 = AXIS2_PLACEMENT_3D ( 'NONE', #100, #237, #151 ) ;
#92 = CIRCLE ( 'NONE', #75, 3.874999999999989300 ) ;
#93 = APPROVAL_STATUS ( 'not_yet_approved' ) ;
#94 = SECURITY_CLASSIFICATION_LEVEL ( 'unclassified' ) ;
#95 = CC_DESIGN_APPROVAL ( #191, ( #204 ) ) ;
#96 = COORDINATED_UNIVERSAL_TIME_OFFSET ( 6, 0, .BEHIND. ) ;
#97 = DIRECTION ( 'NONE',  ( 0.0000000000000000000, 0.0000000000000000000, 1.000000000000000000 ) ) ;
#98 = EDGE_LOOP ( 'NONE', ( #137, #182, #238, #242 ) ) ;
#99 = VERTEX_POINT ( 'NONE', #213 ) ;
#100 = CARTESIAN_POINT ( 'NONE',  ( 0.0000000000000000000, 0.0000000000000000000, 0.0000000000000000000 ) ) ;
#101 = CARTESIAN_POINT ( 'NONE',  ( 0.0000000000000000000, 200.0000000000000000, -3.874999999999989300 ) ) ;
#102 = CARTESIAN_POINT ( 'NONE',  ( 0.0000000000000000000, 0.1250000000000417400, 4.000000000000000000 ) ) ;
#103 = APPROVAL ( #180, 'UNSPECIFIED' ) ;
#104 = DIRECTION ( 'NONE',  ( 0.0000000000000000000, 0.7071067811864788500, 0.7071067811866161800 ) ) ;
#105 = CARTESIAN_POINT ( 'NONE',  ( 0.0000000000000000000, 0.1250000000000417400, -4.000000000000000000 ) ) ;
#107 = AXIS2_PLACEMENT_3D ( 'NONE', #122, #58, #81 ) ;
#106 = DIRECTION ( 'NONE',  ( 0.0000000000000000000, 0.0000000000000000000, 1.000000000000000000 ) ) ;
#108 = LINE ( 'NONE', #185, #124 ) ;
#109 = DIRECTION ( 'NONE',  ( 0.0000000000000000000, 0.0000000000000000000, 1.000000000000000000 ) ) ;
#110 = VECTOR ( 'NONE', #37, 1000.000000000000000 ) ;
#111 = VERTEX_POINT ( 'NONE', #20 ) ;
#112 = CIRCLE ( 'NONE', #9, 3.874999999999934300 ) ;
#113 = PERSON_AND_ORGANIZATION_ROLE ( 'design_owner' ) ;
#114 = APPROVAL_ROLE ( '' ) ;
#115 = CONICAL_SURFACE ( 'NONE', #107, 3.874999999999989300, 0.7853981633975455300 ) ;
#116 = CC_DESIGN_APPROVAL ( #103, ( #86 ) ) ;
#117 = EDGE_LOOP ( 'NONE', ( #118, #160 ) ) ;
#118 = ORIENTED_EDGE ( 'NONE', *, *, #262, .T. ) ;
#119 =( GEOMETRIC_REPRESENTATION_CONTEXT ( 3 ) GLOBAL_UNCERTAINTY_ASSIGNED_CONTEXT ( ( #15 ) ) GLOBAL_UNIT_ASSIGNED_CONTEXT ( ( #155, #5, #42 ) ) REPRESENTATION_CONTEXT ( 'NONE', 'WORKASPACE' ) );
#120 = EDGE_LOOP ( 'NONE', ( #224, #177, #227, #133 ) ) ;
#121 = PRODUCT_DEFINITION_SHAPE ( 'NONE', 'NONE',  #86 ) ;
#122 = CARTESIAN_POINT ( 'NONE',  ( 0.0000000000000000000, 200.0000000000000000, 0.0000000000000000000 ) ) ;
#123 = ORIENTED_EDGE ( 'NONE', *, *, #262, .F. ) ;
#124 = VECTOR ( 'NONE', #232, 1000.000000000000000 ) ;
#125 = DIRECTION ( 'NONE',  ( 0.0000000000000000000, 0.0000000000000000000, 1.000000000000000000 ) ) ;
#126 = VECTOR ( 'NONE', #104, 1000.000000000000200 ) ;
#127 = DIRECTION ( 'NONE',  ( -0.0000000000000000000, 1.000000000000000000, -0.0000000000000000000 ) ) ;
#128 = ORIENTED_EDGE ( 'NONE', *, *, #19, .T. ) ;
#129 = PERSON_AND_ORGANIZATION ( #197, #211 ) ;
#130 = CARTESIAN_POINT ( 'NONE',  ( 0.0000000000000000000, 0.0000000000000000000, 0.0000000000000000000 ) ) ;
#131 = CARTESIAN_POINT ( 'NONE',  ( 0.0000000000000000000, 200.0000000000000000, 0.0000000000000000000 ) ) ;
#132 = DATE_TIME_ROLE ( 'classification_date' ) ;
#133 = ORIENTED_EDGE ( 'NONE', *, *, #255, .F. ) ;
#134 = VECTOR ( 'NONE', #205, 1000.000000000000100 ) ;
#135 = APPROVAL_PERSON_ORGANIZATION ( #44, #8, #29 ) ;
#136 = APPROVAL_PERSON_ORGANIZATION ( #181, #191, #114 ) ;
#137 = ORIENTED_EDGE ( 'NONE', *, *, #192, .F. ) ;
#138 = CARTESIAN_POINT ( 'NONE',  ( 0.0000000000000000000, 200.0000000000000000, 0.0000000000000000000 ) ) ;
#139 = DIRECTION ( 'NONE',  ( 8.659560562355772300E-017, 0.7071067811864788500, -0.7071067811866161800 ) ) ;
#140 = CC_DESIGN_APPROVAL ( #8, ( #48 ) ) ;
#141 = CALENDAR_DATE ( 2018, 12, 2 ) ;
#142 = EDGE_CURVE ( 'NONE', #111, #56, #72, .T. ) ;
#143 = APPLICATION_PROTOCOL_DEFINITION ( 'international standard', 'config_control_design', 1994, #174 ) ;
#144 = ORIENTED_EDGE ( 'NONE', *, *, #178, .T. ) ;
#145 = LOCAL_TIME ( 15, 33, 9.000000000000000000, #96 ) ;
#146 = VERTEX_POINT ( 'NONE', #269 ) ;
#147 = CALENDAR_DATE ( 2018, 12, 2 ) ;
#148 = VECTOR ( 'NONE', #235, 1000.000000000000100 ) ;
#149 = ORIENTED_EDGE ( 'NONE', *, *, #14, .F. ) ;
#150 = AXIS2_PLACEMENT_3D ( 'NONE', #138, #272, #171 ) ;
#151 = DIRECTION ( 'NONE',  ( 0.0000000000000000000, -0.0000000000000000000, 1.000000000000000000 ) ) ;
#152 = LINE ( 'NONE', #186, #134 ) ;
#153 = CARTESIAN_POINT ( 'NONE',  ( 0.0000000000000000000, 200.0000000000000000, -4.000000000000000000 ) ) ;
#154 = CARTESIAN_POINT ( 'NONE',  ( 0.0000000000000000000, 200.0000000000000000, 0.0000000000000000000 ) ) ;
#155 =( LENGTH_UNIT ( ) NAMED_UNIT ( * ) SI_UNIT ( .MILLI., .METRE. ) );
#156 = PRODUCT ( '2100-0008-0200', '2100-0008-0200', '', ( #70 ) ) ;
#157 = FACE_OUTER_BOUND ( 'NONE', #117, .T. ) ;
#158 = LOCAL_TIME ( 15, 33, 9.000000000000000000, #88 ) ;
#159 = CC_DESIGN_PERSON_AND_ORGANIZATION_ASSIGNMENT ( #252, #49, ( #86 ) ) ;
#160 = ORIENTED_EDGE ( 'NONE', *, *, #192, .T. ) ;
#161 = DIRECTION ( 'NONE',  ( 0.0000000000000000000, 0.0000000000000000000, 1.000000000000000000 ) ) ;
#162 = DIRECTION ( 'NONE',  ( 0.0000000000000000000, -1.000000000000000000, 0.0000000000000000000 ) ) ;
#163 = DIRECTION ( 'NONE',  ( 0.0000000000000000000, 0.0000000000000000000, 1.000000000000000000 ) ) ;
#164 = EDGE_LOOP ( 'NONE', ( #69, #68 ) ) ;
#165 = FACE_OUTER_BOUND ( 'NONE', #256, .T. ) ;
#166 = DIRECTION ( 'NONE',  ( -0.0000000000000000000, 1.000000000000000000, -0.0000000000000000000 ) ) ;
#167 = ORIENTED_EDGE ( 'NONE', *, *, #142, .F. ) ;
#168 = CARTESIAN_POINT ( 'NONE',  ( 0.0000000000000000000, 0.1250000000000417400, 0.0000000000000000000 ) ) ;
#169 = CARTESIAN_POINT ( 'NONE',  ( 0.0000000000000000000, 199.8750000000000300, 0.0000000000000000000 ) ) ;
#170 = DIRECTION ( 'NONE',  ( -0.0000000000000000000, 1.000000000000000000, -0.0000000000000000000 ) ) ;
#171 = DIRECTION ( 'NONE',  ( 0.0000000000000000000, -0.0000000000000000000, 1.000000000000000000 ) ) ;
#172 = MANIFOLD_SOLID_BREP ( 'Chamfer1', #212 ) ;
#173 = CONICAL_SURFACE ( 'NONE', #2, 4.000000000000000000, 0.7853981633975454200 ) ;
#174 = APPLICATION_CONTEXT ( 'configuration controlled 3d designs of mechanical parts and assemblies' ) ;
#175 = ORIENTED_EDGE ( 'NONE', *, *, #255, .T. ) ;
#176 = CC_DESIGN_DATE_AND_TIME_ASSIGNMENT ( #63, #132, ( #204 ) ) ;
#177 = ORIENTED_EDGE ( 'NONE', *, *, #273, .F. ) ;
#178 = EDGE_CURVE ( 'NONE', #146, #10, #275, .T. ) ;
#179 = DIRECTION ( 'NONE',  ( -0.0000000000000000000, -1.000000000000000000, -0.0000000000000000000 ) ) ;
#180 = APPROVAL_STATUS ( 'not_yet_approved' ) ;
#181 = PERSON_AND_ORGANIZATION ( #197, #211 ) ;
#182 = ORIENTED_EDGE ( 'NONE', *, *, #27, .T. ) ;
#183 = PERSON_AND_ORGANIZATION_ROLE ( 'design_supplier' ) ;
#184 = APPROVAL_DATE_TIME ( #35, #103 ) ;
#185 = CARTESIAN_POINT ( 'NONE',  ( 4.898587196589412800E-016, 200.0000000000000000, 4.000000000000000000 ) ) ;
#186 = CARTESIAN_POINT ( 'NONE',  ( 4.745506346695981100E-016, 200.0000000000000000, 3.874999999999989300 ) ) ;
#187 = FACE_OUTER_BOUND ( 'NONE', #82, .T. ) ;
#188 = DIRECTION ( 'NONE',  ( 0.0000000000000000000, 0.0000000000000000000, 1.000000000000000000 ) ) ;
#189 = DIRECTION ( 'NONE',  ( 0.0000000000000000000, -1.000000000000000000, 0.0000000000000000000 ) ) ;
#190 = APPROVAL_PERSON_ORGANIZATION ( #7, #103, #225 ) ;
#191 = APPROVAL ( #230, 'UNSPECIFIED' ) ;
#192 = EDGE_CURVE ( 'NONE', #99, #214, #271, .T. ) ;
#193 = CONICAL_SURFACE ( 'NONE', #24, 4.000000000000000000, 0.7853981633975454200 ) ;
#194 = SHAPE_DEFINITION_REPRESENTATION ( #121, #254 ) ;
#195 = DIRECTION ( 'NONE',  ( 0.0000000000000000000, 0.0000000000000000000, 1.000000000000000000 ) ) ;
#196 = ADVANCED_FACE ( 'NONE', ( #12 ), #193, .T. ) ;
#197 = PERSON ( 'UNSPECIFIED', 'UNSPECIFIED', 'UNSPECIFIED', ('UNSPECIFIED'), ('UNSPECIFIED'), ('UNSPECIFIED') ) ;
#198 = ADVANCED_FACE ( 'NONE', ( #219 ), #173, .T. ) ;
#199 = APPLICATION_CONTEXT ( 'configuration controlled 3d designs of mechanical parts and assemblies' ) ;
#200 = APPLICATION_PROTOCOL_DEFINITION ( 'international standard', 'config_control_design', 1994, #199 ) ;
#201 = AXIS2_PLACEMENT_3D ( 'NONE', #45, #163, #258 ) ;
#202 = CYLINDRICAL_SURFACE ( 'NONE', #50, 4.000000000000000000 ) ;
#203 = EDGE_LOOP ( 'NONE', ( #226, #233, #267, #167 ) ) ;
#204 = SECURITY_CLASSIFICATION ( '', '', #94 ) ;
#205 = DIRECTION ( 'NONE',  ( 8.659560562355773500E-017, -0.7071067811864788500, 0.7071067811866163000 ) ) ;
#206 = AXIS2_PLACEMENT_3D ( 'NONE', #216, #244, #18 ) ;
#207 = VECTOR ( 'NONE', #139, 1000.000000000000200 ) ;
#208 = CALENDAR_DATE ( 2018, 12, 2 ) ;
#209 = CARTESIAN_POINT ( 'NONE',  ( 0.0000000000000000000, 200.0000000000000000, -3.874999999999989300 ) ) ;
#210 = DIRECTION ( 'NONE',  ( -0.0000000000000000000, 1.000000000000000000, -0.0000000000000000000 ) ) ;
#211 = ORGANIZATION ( 'UNSPECIFIED', 'UNSPECIFIED', '' ) ;
#212 = CLOSED_SHELL ( 'NONE', ( #87, #198, #217, #274, #251, #39, #196, #65 ) ) ;
#213 = CARTESIAN_POINT ( 'NONE',  ( 4.822046771642696500E-016, 200.0000000000000000, 3.874999999999989300 ) ) ;
#214 = VERTEX_POINT ( 'NONE', #101 ) ;
#215 = FACE_OUTER_BOUND ( 'NONE', #249, .T. ) ;
#216 = CARTESIAN_POINT ( 'NONE',  ( 0.0000000000000000000, 0.0000000000000000000, 0.0000000000000000000 ) ) ;
#217 = ADVANCED_FACE ( 'NONE', ( #215 ), #202, .T. ) ;
#218 = DIRECTION ( 'NONE',  ( 0.0000000000000000000, 0.0000000000000000000, 1.000000000000000000 ) ) ;
#219 = FACE_OUTER_BOUND ( 'NONE', #203, .T. ) ;
#220 = COORDINATED_UNIVERSAL_TIME_OFFSET ( 6, 0, .BEHIND. ) ;
#221 = CC_DESIGN_PERSON_AND_ORGANIZATION_ASSIGNMENT ( #47, #6, ( #204 ) ) ;
#222 = AXIS2_PLACEMENT_3D ( 'NONE', #169, #270, #188 ) ;
#223 = EDGE_CURVE ( 'NONE', #10, #146, #77, .T. ) ;
#224 = ORIENTED_EDGE ( 'NONE', *, *, #236, .F. ) ;
#225 = APPROVAL_ROLE ( '' ) ;
#226 = ORIENTED_EDGE ( 'NONE', *, *, #40, .F. ) ;
#227 = ORIENTED_EDGE ( 'NONE', *, *, #142, .T. ) ;
#228 = APPROVAL_DATE_TIME ( #53, #8 ) ;
#229 = PRODUCT_RELATED_PRODUCT_CATEGORY ( 'detail', '', ( #156 ) ) ;
#230 = APPROVAL_STATUS ( 'not_yet_approved' ) ;
#231 = DESIGN_CONTEXT ( 'detailed design', #199, 'design' ) ;
#232 = DIRECTION ( 'NONE',  ( -0.0000000000000000000, -1.000000000000000000, -0.0000000000000000000 ) ) ;
#233 = ORIENTED_EDGE ( 'NONE', *, *, #236, .T. ) ;
#234 = CIRCLE ( 'NONE', #30, 4.000000000000000000 ) ;
#235 = DIRECTION ( 'NONE',  ( 0.0000000000000000000, -0.7071067811864788500, -0.7071067811866163000 ) ) ;
#236 = EDGE_CURVE ( 'NONE', #61, #41, #16, .T. ) ;
#237 = DIRECTION ( 'NONE',  ( 0.0000000000000000000, 1.000000000000000000, 0.0000000000000000000 ) ) ;
#238 = ORIENTED_EDGE ( 'NONE', *, *, #223, .F. ) ;
#239 = DIRECTION ( 'NONE',  ( -0.0000000000000000000, -1.000000000000000000, -0.0000000000000000000 ) ) ;
#240 = CC_DESIGN_SECURITY_CLASSIFICATION ( #204, ( #48 ) ) ;
#241 = CALENDAR_DATE ( 2018, 12, 2 ) ;
#242 = ORIENTED_EDGE ( 'NONE', *, *, #31, .F. ) ;
#243 = CARTESIAN_POINT ( 'NONE',  ( 4.898587196589412800E-016, 0.1250000000000417400, 4.000000000000000000 ) ) ;
#244 = DIRECTION ( 'NONE',  ( -0.0000000000000000000, -1.000000000000000000, -0.0000000000000000000 ) ) ;
#245 = CARTESIAN_POINT ( 'NONE',  ( 4.898587196589412800E-016, 0.1250000000000417400, -4.000000000000000000 ) ) ;
#246 = CIRCLE ( 'NONE', #55, 4.000000000000000000 ) ;
#247 = DIRECTION ( 'NONE',  ( 0.0000000000000000000, 0.0000000000000000000, -1.000000000000000000 ) ) ;
#248 = PERSON_AND_ORGANIZATION ( #197, #211 ) ;
#249 = EDGE_LOOP ( 'NONE', ( #85, #25, #128, #52 ) ) ;
#250 = PLANE ( 'NONE',  #150 ) ;
#251 = ADVANCED_FACE ( 'NONE', ( #157 ), #250, .T. ) ;
#252 = PERSON_AND_ORGANIZATION ( #197, #211 ) ;
#253 = DIRECTION ( 'NONE',  ( 0.0000000000000000000, 1.000000000000000000, 0.0000000000000000000 ) ) ;
#254 = ADVANCED_BREP_SHAPE_REPRESENTATION ( '2100-0008-0200', ( #172, #201 ), #119 ) ;
#255 = EDGE_CURVE ( 'NONE', #41, #56, #234, .T. ) ;
#256 = EDGE_LOOP ( 'NONE', ( #11, #123, #3, #79 ) ) ;
#257 = DATE_TIME_ROLE ( 'creation_date' ) ;
#258 = DIRECTION ( 'NONE',  ( 1.000000000000000000, 0.0000000000000000000, 0.0000000000000000000 ) ) ;
#259 = CC_DESIGN_PERSON_AND_ORGANIZATION_ASSIGNMENT ( #129, #113, ( #156 ) ) ;
#260 = COORDINATED_UNIVERSAL_TIME_OFFSET ( 6, 0, .BEHIND. ) ;
#261 = AXIS2_PLACEMENT_3D ( 'NONE', #60, #268, #59 ) ;
#262 = EDGE_CURVE ( 'NONE', #214, #99, #92, .T. ) ;
#263 = APPROVAL_DATE_TIME ( #89, #191 ) ;
#264 = AXIS2_PLACEMENT_3D ( 'NONE', #80, #189, #34 ) ;
#265 = CARTESIAN_POINT ( 'NONE',  ( 0.0000000000000000000, 200.0000000000000000, 0.0000000000000000000 ) ) ;
#266 = LOCAL_TIME ( 15, 33, 9.000000000000000000, #260 ) ;
#267 = ORIENTED_EDGE ( 'NONE', *, *, #19, .F. ) ;
#268 = DIRECTION ( 'NONE',  ( 0.0000000000000000000, 1.000000000000000000, 0.0000000000000000000 ) ) ;
#269 = CARTESIAN_POINT ( 'NONE',  ( 4.898587196589412800E-016, 199.8750000000000300, 4.000000000000000000 ) ) ;
#270 = DIRECTION ( 'NONE',  ( 0.0000000000000000000, -1.000000000000000000, 0.0000000000000000000 ) ) ;
#271 = CIRCLE ( 'NONE', #261, 3.874999999999989300 ) ;
#273 = EDGE_CURVE ( 'NONE', #111, #61, #112, .T. ) ;
#272 = DIRECTION ( 'NONE',  ( 0.0000000000000000000, 1.000000000000000000, 0.0000000000000000000 ) ) ;
#274 = ADVANCED_FACE ( 'NONE', ( #187 ), #62, .T. ) ;
#275 = CIRCLE ( 'NONE', #222, 4.000000000000000000 ) ;
ENDSEC;
END-ISO-10303-21;
